name ./resultDataOpenSim/trcMotMarkerGrf/sub10/grf-05-06.mot
datacolumns 19
datarows 17
range 1.50400000 1.56800000
endheader

                time	     ground_force_vx	     ground_force_vy	     ground_force_vz	     ground_force_px	     ground_force_py	     ground_force_pz	   l_ground_force_vx	   l_ground_force_vy	   l_ground_force_vz	   l_ground_force_px	   l_ground_force_py	   l_ground_force_pz	     ground_torque_x	     ground_torque_y	     ground_torque_z	   l_ground_torque_x	   l_ground_torque_y	   l_ground_torque_z	
          1.50400000	        -29.66688135	        467.52154024	        -26.45921480	          0.80668583	          0.00000000	          0.05450075	          0.00000000	          0.00000000	          0.00000000	          0.00000000	          0.00000000	          0.00000000	          0.00000000	          1.21586740	          0.00000000	          0.00000000	          0.00000000	          0.00000000	
          1.50800000	        -26.03790252	        457.38662711	        -25.21804824	          0.80689625	          0.00000000	          0.05471390	          0.00000000	          0.00000000	          0.00000000	          0.00000000	          0.00000000	          0.00000000	          0.00000000	          1.22021834	          0.00000000	          0.00000000	          0.00000000	          0.00000000	
          1.51200000	        -22.27113581	        447.64646834	        -23.73893650	          0.80706283	          0.00000000	          0.05492856	          0.00000000	          0.00000000	          0.00000000	          0.00000000	          0.00000000	          0.00000000	          0.00000000	          1.20528604	          0.00000000	          0.00000000	          0.00000000	          0.00000000	
          1.51600000	        -18.56765441	        438.29158508	        -22.16035480	          0.80721454	          0.00000000	          0.05514414	          0.00000000	          0.00000000	          0.00000000	          0.00000000	          0.00000000	          0.00000000	          0.00000000	          1.17943430	          0.00000000	          0.00000000	          0.00000000	          0.00000000	
          1.52000000	        -15.15722876	        429.31357476	        -20.64837066	          0.80740200	          0.00000000	          0.05535976	          0.00000000	          0.00000000	          0.00000000	          0.00000000	          0.00000000	          0.00000000	          0.00000000	          1.15404640	          0.00000000	          0.00000000	          0.00000000	          0.00000000	
          1.52400000	        -12.24188909	        420.71200167	        -19.35531115	          0.80767547	          0.00000000	          0.05557966	          0.00000000	          0.00000000	          0.00000000	          0.00000000	          0.00000000	          0.00000000	          0.00000000	          1.14138502	          0.00000000	          0.00000000	          0.00000000	          0.00000000	
          1.52800000	         -9.94625376	        412.49982000	        -18.38846423	          0.80807022	          0.00000000	          0.05581179	          0.00000000	          0.00000000	          0.00000000	          0.00000000	          0.00000000	          0.00000000	          0.00000000	          1.15173698	          0.00000000	          0.00000000	          0.00000000	          0.00000000	
          1.53200000	         -8.28567838	        404.71336398	        -17.79516023	          0.80860179	          0.00000000	          0.05605595	          0.00000000	          0.00000000	          0.00000000	          0.00000000	          0.00000000	          0.00000000	          0.00000000	          1.19056922	          0.00000000	          0.00000000	          0.00000000	          0.00000000	
          1.53600000	         -7.16139037	        397.41781195	        -17.56116007	          0.80926522	          0.00000000	          0.05630019	          0.00000000	          0.00000000	          0.00000000	          0.00000000	          0.00000000	          0.00000000	          0.00000000	          1.25679382	          0.00000000	          0.00000000	          0.00000000	          0.00000000	
          1.54000000	         -6.38706253	        390.69373226	        -17.61707804	          0.81003828	          0.00000000	          0.05653431	          0.00000000	          0.00000000	          0.00000000	          0.00000000	          0.00000000	          0.00000000	          0.00000000	          1.34297790	          0.00000000	          0.00000000	          0.00000000	          0.00000000	
          1.54400000	         -5.73921862	        384.61127413	        -17.85135965	          0.81088045	          0.00000000	          0.05675500	          0.00000000	          0.00000000	          0.00000000	          0.00000000	          0.00000000	          0.00000000	          0.00000000	          1.43752106	          0.00000000	          0.00000000	          0.00000000	          0.00000000	
          1.54800000	         -5.01480547	        379.21168374	        -18.12921084	          0.81175108	          0.00000000	          0.05696379	          0.00000000	          0.00000000	          0.00000000	          0.00000000	          0.00000000	          0.00000000	          0.00000000	          1.52795673	          0.00000000	          0.00000000	          0.00000000	          0.00000000	
          1.55200000	         -4.07966537	        374.50717342	        -18.31586333	          0.81261385	          0.00000000	          0.05716772	          0.00000000	          0.00000000	          0.00000000	          0.00000000	          0.00000000	          0.00000000	          0.00000000	          1.60413232	          0.00000000	          0.00000000	          0.00000000	          0.00000000	
          1.55600000	         -2.89753914	        370.49407213	        -18.30285670	          0.81344053	          0.00000000	          0.05737366	          0.00000000	          0.00000000	          0.00000000	          0.00000000	          0.00000000	          0.00000000	          0.00000000	          1.66027530	          0.00000000	          0.00000000	          0.00000000	          0.00000000	
          1.56000000	         -1.53070141	        367.16666407	        -18.03210641	          0.81423535	          0.00000000	          0.05757943	          0.00000000	          0.00000000	          0.00000000	          0.00000000	          0.00000000	          0.00000000	          0.00000000	          1.69562558	          0.00000000	          0.00000000	          0.00000000	          0.00000000	
          1.56400000	         -0.10931156	        364.52288287	        -17.50860726	          0.81502828	          0.00000000	          0.05777140	          0.00000000	          0.00000000	          0.00000000	          0.00000000	          0.00000000	          0.00000000	          0.00000000	          1.71393652	          0.00000000	          0.00000000	          0.00000000	          0.00000000	
          1.56800000	          1.21758659	        362.56518209	        -16.79685299	          0.81584362	          0.00000000	          0.05793049	          0.00000000	          0.00000000	          0.00000000	          0.00000000	          0.00000000	          0.00000000	          0.00000000	          1.72236529	          0.00000000	          0.00000000	          0.00000000	          0.00000000	
